# xmcd
#
# Track frame offsets:
#	150
#	49464
#	76146
#	105962
#	120812
#	148779
#	251089
#	276062
#	309638
#
# Disc length: 4350 seconds
#
# Revision: 1
# Processed by: cddbd v1.5.2PL0 Copyright (c) Steve Scherf et al.
# Submitted via: audiograbber 1.83.01
#
DISCID=7310fc09
DTITLE=Grateful Dead - 72-03-23 Academy of Music, New York NY
DYEAR=1900
DGENRE=
TTITLE0=Truckin'
TTITLE1=Ramble On Rose
TTITLE2=Two Souls In Communion
TTITLE3=Mexicali Blues
TTITLE4=Big Boss Man
TTITLE5=Dark Star
TTITLE6=Not Fade Away
TTITLE7=Going Down The Road Feeling Bad
TTITLE8=Not Fade Away
EXTD=
EXTT0=
EXTT1=
EXTT2=
EXTT3=
EXTT4=
EXTT5=
EXTT6=
EXTT7=
EXTT8=
PLAYORDER=
